<?xml version="1.0" standalone="no"?>
<!DOCTYPE svg PUBLIC "-//W3C//DTD SVG 20010904//EN"
 "http://www.w3.org/TR/2001/REC-SVG-20010904/DTD/svg10.dtd">
<svg version="1.0" xmlns="http://www.w3.org/2000/svg"
 width="512.000000pt" height="512.000000pt" viewBox="0 0 512.000000 512.000000"
 preserveAspectRatio="xMidYMid meet">
<metadata>
Created by potrace 1.14, written by Peter Selinger 2001-2017
</metadata>
<g transform="translate(0.000000,512.000000) scale(0.100000,-0.100000)"
fill="#000000" stroke="none">
<path d="M1365 5113 c-320 -61 -553 -298 -593 -603 -45 -354 189 -683 538
-759 149 -32 272 -18 450 52 10 4 28 -11 55 -45 22 -28 45 -56 50 -62 26 -27
115 -138 115 -142 0 -3 -22 -34 -49 -70 -68 -89 -126 -211 -155 -324 -21 -83
-24 -113 -21 -235 1 -77 6 -149 9 -160 6 -18 -13 -28 -186 -98 -106 -44 -208
-86 -227 -94 -34 -15 -35 -15 -59 13 -46 54 -99 109 -133 137 -48 40 -183 104
-258 123 -138 34 -316 18 -442 -40 -101 -47 -134 -70 -222 -160 -119 -121
-189 -299 -188 -478 2 -293 187 -552 461 -644 30 -10 57 -19 60 -19 286 -58
548 34 719 254 84 108 138 274 137 418 l-1 72 235 96 234 95 25 -32 c112 -148
303 -282 463 -324 35 -10 66 -20 70 -23 7 -6 12 -100 23 -471 4 -113 7 -207 7
-210 1 -22 -8 -31 -49 -46 -78 -30 -159 -82 -226 -148 -136 -131 -203 -280
-212 -471 -15 -330 209 -623 533 -698 61 -14 248 -16 301 -3 222 53 397 197
485 399 74 167 72 403 -5 564 -85 180 -247 318 -441 379 l-56 17 -2 141 c-1
78 -3 188 -5 246 -4 161 -6 274 -6 288 1 6 12 12 25 12 24 0 132 31 176 51
116 53 200 109 285 191 38 38 72 68 76 68 4 0 51 -21 105 -46 141 -66 197 -91
214 -96 12 -4 15 -27 16 -119 1 -128 5 -157 30 -232 159 -482 758 -636 1130
-290 222 207 280 558 136 823 -41 74 -62 102 -131 171 -78 77 -175 134 -286
168 -148 44 -352 29 -477 -35 -20 -11 -52 -27 -72 -38 -20 -10 -70 -50 -110
-87 -41 -38 -77 -69 -81 -69 -7 0 -111 46 -247 109 -38 18 -68 37 -68 42 0 6
8 39 17 73 26 95 23 318 -5 419 -29 102 -64 184 -107 252 -19 30 -35 58 -35
62 0 12 306 233 322 233 7 0 27 -9 43 -21 115 -78 336 -121 485 -95 151 27
294 104 390 210 77 85 145 213 164 311 4 17 9 41 11 55 7 32 7 164 0 209 -25
178 -145 364 -300 469 -315 211 -749 125 -958 -191 -36 -53 -80 -153 -91 -204
-4 -15 -9 -39 -12 -53 -22 -103 0 -311 41 -390 9 -18 15 -33 13 -34 -2 -2 -64
-47 -138 -102 -74 -54 -137 -101 -140 -104 -3 -4 -22 -18 -43 -32 l-39 -26
-63 34 c-62 34 -160 69 -219 80 -16 3 -33 7 -38 10 -5 3 -59 7 -121 9 -132 5
-241 -12 -359 -55 -45 -16 -83 -30 -84 -30 -1 0 -52 61 -113 135 l-110 135 28
52 c34 61 68 145 76 185 16 79 21 124 19 183 -7 295 -204 552 -489 640 -66 20
-243 34 -300 23z"/>
</g>
</svg>
